<?xml version="1.0" encoding="iso-8859-1"?>
<svg fill="#000000" height="800px" width="800px" version="1.1" id="Layer_1" xmlns="http://www.w3.org/2000/svg" xmlns:xlink="http://www.w3.org/1999/xlink" 
	 viewBox="0 0 512 512" xml:space="preserve">
<g>
	<g>
		<path d="M293.987,205.003h-75.978c-10.281,0-18.615,8.334-18.615,18.616v28.134h113.21v-28.134
			C312.604,213.338,304.269,205.003,293.987,205.003z"/>
	</g>
</g>
<g>
	<g>
		<path d="M484.683,465.402c-9.83-75.65-56.302-140.857-123.366-175.235c26.409-32.061,40.946-74.222,40.946-118.911
			C402.261,78.372,338.42,0,255.999,0c-80.33,0-146.262,75.867-146.262,171.255c0,44.689,14.536,86.85,40.946,118.911
			C83.619,324.546,37.15,389.752,27.318,465.404C24.116,490.071,43.331,512,68.28,512h375.44
			C468.66,512,487.88,490.005,484.683,465.402z M142.953,171.255c-0.001-76.116,50.712-138.041,113.047-138.041
			c62.336,0,113.048,61.925,113.048,138.041c0,81.307-55.288,138.041-113.048,138.041
			C187.934,309.297,142.953,240.683,142.953,171.255z M443.72,478.786H68.28c-4.91,0-8.648-4.293-8.024-9.103
			c8.904-68.519,52.945-127.035,115.838-154.856c24.288,18.604,52.02,27.685,79.906,27.685c28.437,0,56.054-9.415,79.907-27.685
			c62.893,27.821,106.935,86.338,115.839,154.858C452.364,474.441,448.609,478.786,443.72,478.786z"/>
	</g>
</g>
</svg>